<svg data-v-423bf9ae="" xmlns="http://www.w3.org/2000/svg" viewBox="0 0 436.69743445607105 183" class="iconAboveSlogan"><!----><!----><!----><g data-v-423bf9ae="" id="0939826d-473b-408e-9fe5-44c4f990eeda" fill="black" transform="matrix(5.029338077243787,0,0,5.029338077243787,-2.0117296435942933,91.4325229005754)"><path d="M13.46 11.58L13.46 11.58L13.46 11.58Q13.46 12.60 13.11 13.15L13.11 13.15L15.13 13.15L15.13 13.15Q15.00 13.19 14.83 13.34L14.83 13.34L14.83 13.34Q14.66 13.49 14.48 13.65L14.48 13.65L14.48 13.65Q13.99 14.08 13.80 14.08L13.80 14.08L11.77 14.08L11.77 14.08Q12.11 13.58 12.11 12.70L12.11 12.70L12.11 12.70Q12.11 11.83 12.07 11.02L12.07 11.02L12.07 11.02Q12.02 10.21 12.00 9.63L12.00 9.63L12.00 9.63Q11.97 9.04 11.95 8.66L11.95 8.66L11.95 8.66Q11.94 8.28 11.92 7.89L11.92 7.89L11.92 7.89Q11.87 6.75 11.85 6.38L11.85 6.38L11.85 6.38Q11.24 7.44 10.61 8.58L10.61 8.58L10.61 8.58Q9.97 9.71 9.52 10.50L9.52 10.50L9.52 10.50Q9.07 11.29 8.81 11.80L8.81 11.80L8.81 11.80Q8.54 12.31 8.25 12.82L8.25 12.82L8.25 12.82Q8.19 12.92 7.60 13.30L7.60 13.30L7.60 13.30Q7.01 13.69 6.92 13.75L6.92 13.75L6.92 13.75Q6.55 12.60 5.98 11.61L5.98 11.61L5.98 11.61Q5.41 10.62 5.04 10.02L5.04 10.02L5.04 10.02Q4.68 9.43 4.32 8.83L4.32 8.83L3.23 7.02L3.23 7.02Q2.94 10.55 2.79 11.34L2.79 11.34L2.79 11.34Q2.63 12.13 2.49 12.53L2.49 12.53L2.49 12.53Q2.35 12.93 2.14 13.15L2.14 13.15L4.33 13.15L4.33 13.15Q3.19 14.08 3.00 14.08L3.00 14.08L0.75 14.08L0.75 14.08Q1.15 13.69 1.42 12.35L1.42 12.35L1.42 12.35Q1.72 10.86 2.12 5.17L2.12 5.17L0.40 5.17L0.40 5.17Q0.90 4.68 1.59 4.30L1.59 4.30L1.59 4.30Q1.68 4.25 1.73 4.25L1.73 4.25L3.45 4.25L3.45 4.25Q4.03 5.20 4.59 6.14L4.59 6.14L5.73 8.03L5.73 8.03Q6.02 8.51 6.31 8.99L6.31 8.99L6.31 8.99Q6.60 9.46 6.88 9.94L6.88 9.94L6.88 9.94Q7.56 11.11 7.91 11.92L7.91 11.92L7.91 11.92Q8.56 10.78 9.44 9.17L9.44 9.17L9.44 9.17Q11.01 6.28 11.77 4.97L11.77 4.97L11.77 4.97Q11.90 4.76 12.78 4.24L12.78 4.24L12.78 4.24Q12.98 4.12 13.10 4.04L13.10 4.04L13.10 4.04Q13.26 7.03 13.33 8.78L13.33 8.78L13.33 8.78Q13.41 10.53 13.43 10.88L13.43 10.88L13.43 10.88Q13.46 11.22 13.46 11.58ZM20.30 9.28L20.30 12.06L20.28 12.54L20.28 12.54Q20.28 13.07 20.58 13.21L20.58 13.21L20.58 13.21Q20.70 13.27 20.85 13.27L20.85 13.27L20.85 13.27Q21.09 13.27 21.34 13.16L21.34 13.16L21.34 13.16Q21.08 13.27 20.89 13.45L20.89 13.45L20.89 13.45Q20.70 13.62 20.50 13.79L20.50 13.79L20.50 13.79Q20.01 14.21 19.51 14.21L19.51 14.21L19.51 14.21Q19.01 14.21 18.98 13.63L18.98 13.63L18.98 13.63Q18.96 13.48 18.96 13.33L18.96 13.33L18.96 13.33Q17.73 14.18 16.71 14.18L16.71 14.18L16.71 14.18Q15.84 14.18 15.50 13.66L15.50 13.66L15.50 13.66Q15.38 13.47 15.38 13.13L15.38 13.13L15.38 13.13Q15.38 12.80 15.59 12.46L15.59 12.46L15.59 12.46Q15.79 12.12 16.11 11.84L16.11 11.84L16.11 11.84Q16.67 11.32 17.46 10.99L17.46 10.99L17.46 10.99Q18.05 10.73 18.97 10.70L18.97 10.70L18.97 10.40L18.97 10.40Q18.97 9.31 18.77 8.93L18.77 8.93L18.77 8.93Q18.57 8.54 18.26 8.36L18.26 8.36L18.26 8.36Q17.94 8.18 17.52 8.18L17.52 8.18L17.52 8.18Q16.80 8.18 16.26 8.46L16.26 8.46L16.26 8.46Q17.01 7.84 17.36 7.64L17.36 7.64L17.36 7.64Q18.07 7.24 18.66 7.24L18.66 7.24L18.66 7.24Q19.24 7.24 19.54 7.41L19.54 7.41L19.54 7.41Q19.83 7.58 20.00 7.86L20.00 7.86L20.00 7.86Q20.30 8.35 20.30 9.28L20.30 9.28ZM17.08 13.04L17.08 13.04L17.08 13.04Q17.25 13.16 17.47 13.21L17.47 13.21L17.47 13.21Q17.68 13.27 18.12 13.27L18.12 13.27L18.12 13.27Q18.55 13.27 18.97 13.06L18.97 13.06L18.97 11.63L17.86 11.63L17.86 11.63Q17.27 11.63 16.82 11.71L16.82 11.71L16.82 11.71Q16.73 12.00 16.73 12.27L16.73 12.27L16.73 12.27Q16.73 12.54 16.83 12.73L16.83 12.73L16.83 12.73Q16.92 12.92 17.08 13.04ZM28.14 7.44L28.14 7.44L28.14 7.44Q27.31 8.65 26.13 8.65L26.13 8.65L26.13 8.65Q25.94 8.65 25.64 8.50L25.64 8.50L25.64 8.50Q25.07 8.22 24.87 8.22L24.87 8.22L24.87 8.22Q24.66 8.22 24.54 8.35L24.54 8.35L24.54 8.35Q24.42 8.48 24.34 8.71L24.34 8.71L24.34 8.71Q24.15 9.21 24.15 10.02L24.15 10.02L24.15 12.64L24.15 12.64Q24.15 13.08 24.42 13.23L24.42 13.23L24.42 13.23Q24.51 13.30 24.66 13.30L24.66 13.30L24.66 13.30Q24.80 13.30 24.96 13.23L24.96 13.23L24.96 13.23Q24.82 13.35 24.69 13.52L24.69 13.52L24.69 13.52Q24.56 13.69 24.40 13.84L24.40 13.84L24.40 13.84Q24.01 14.22 23.47 14.22L23.47 14.22L23.47 14.22Q23.20 14.22 23.01 14.04L23.01 14.04L23.01 14.04Q22.82 13.87 22.82 13.62L22.82 13.62L22.82 9.68L22.82 9.68Q22.82 9.44 22.83 9.20L22.83 9.20L22.83 9.20Q22.83 8.96 22.78 8.76L22.78 8.76L22.78 8.76Q22.65 8.33 22.03 8.33L22.03 8.33L22.03 8.33Q21.74 8.33 21.44 8.44L21.44 8.44L21.44 8.44Q21.62 8.38 21.90 8.12L21.90 8.12L21.90 8.12Q22.45 7.63 22.66 7.55L22.66 7.55L22.66 7.55Q23.10 7.39 23.37 7.39L23.37 7.39L23.37 7.39Q23.64 7.39 23.79 7.47L23.79 7.47L23.79 7.47Q23.93 7.55 24.01 7.68L24.01 7.68L24.01 7.68Q24.15 7.91 24.15 8.38L24.15 8.38L24.15 8.38Q24.35 8.23 24.59 8.04L24.59 8.04L24.59 8.04Q24.82 7.85 25.07 7.68L25.07 7.68L25.07 7.68Q25.68 7.28 26.13 7.28L26.13 7.28L26.13 7.28Q26.40 7.28 26.69 7.43L26.69 7.43L26.69 7.43Q26.99 7.58 27.13 7.65L27.13 7.65L27.13 7.65Q27.28 7.72 27.40 7.72L27.40 7.72L27.40 7.72Q27.67 7.72 28.14 7.44ZM28.61 13.24L28.61 4.94L28.61 4.94Q28.61 3.92 28.01 3.92L28.01 3.92L28.01 3.92Q27.83 3.92 27.42 4.02L27.42 4.02L27.42 4.02Q27.70 3.81 28.01 3.57L28.01 3.57L28.01 3.57Q28.32 3.34 28.64 3.10L28.64 3.10L28.64 3.10Q29.34 2.62 29.94 2.30L29.94 2.30L29.93 8.58L29.93 8.58Q30.70 7.90 31.64 7.57L31.64 7.57L31.64 7.57Q31.95 7.46 32.19 7.46L32.19 7.46L32.19 7.46Q32.43 7.46 32.62 7.55L32.62 7.55L32.62 7.55Q32.81 7.63 32.94 7.77L32.94 7.77L32.94 7.77Q33.24 8.07 33.24 8.46L33.24 8.46L33.24 8.46Q33.24 8.84 33.04 9.15L33.04 9.15L33.04 9.15Q32.85 9.46 32.57 9.73L32.57 9.73L32.57 9.73Q32.18 10.13 31.40 10.63L31.40 10.63L31.40 10.63Q31.50 10.73 31.71 10.96L31.71 10.96L31.71 10.96Q31.92 11.20 32.18 11.48L32.18 11.48L32.18 11.48Q32.44 11.77 32.74 12.08L32.74 12.08L32.74 12.08Q33.04 12.39 33.30 12.64L33.30 12.64L33.30 12.64Q33.92 13.22 34.11 13.22L34.11 13.22L34.11 13.22Q34.59 13.22 35.05 12.95L35.05 12.95L35.05 12.95Q34.47 13.76 33.61 14.09L33.61 14.09L33.61 14.09Q33.33 14.20 33.11 14.20L33.11 14.20L33.11 14.20Q32.89 14.20 32.77 14.15L32.77 14.15L32.77 14.15Q32.64 14.10 32.53 14.03L32.53 14.03L32.53 14.03Q32.30 13.88 31.92 13.49L31.92 13.49L31.92 13.49Q31.12 12.69 29.93 11.41L29.93 11.41L29.93 12.11L29.93 12.11Q29.93 12.27 29.93 12.47L29.93 12.47L29.93 12.47Q29.93 12.67 29.97 12.86L29.97 12.86L29.97 12.86Q30.06 13.30 30.45 13.30L30.45 13.30L30.45 13.30Q30.59 13.30 30.75 13.23L30.75 13.23L30.75 13.23Q30.60 13.35 30.42 13.52L30.42 13.52L30.42 13.52Q30.23 13.69 30.02 13.85L30.02 13.85L30.02 13.85Q29.51 14.23 29.18 14.23L29.18 14.23L29.18 14.23Q28.61 14.23 28.61 13.24L28.61 13.24ZM30.90 8.39L30.90 8.39L30.90 8.39Q29.93 8.39 29.93 10.86L29.93 10.86L29.93 11.22L29.93 11.22Q31.19 10.72 31.71 9.97L31.71 9.97L31.71 9.97Q31.91 9.68 31.91 9.40L31.91 9.40L31.91 9.40Q31.91 9.13 31.83 8.95L31.83 8.95L31.83 8.95Q31.75 8.78 31.61 8.65L31.61 8.65L31.61 8.65Q31.31 8.39 30.90 8.39ZM40.45 12.82L40.45 12.82L40.45 12.82Q39.51 13.86 38.12 14.12L38.12 14.12L38.12 14.12Q37.80 14.18 37.33 14.18L37.33 14.18L37.33 14.18Q36.86 14.18 36.44 13.91L36.44 13.91L36.44 13.91Q36.03 13.65 35.76 13.23L35.76 13.23L35.76 13.23Q35.25 12.43 35.25 11.27L35.25 11.27L35.25 11.27Q35.25 10.50 35.84 9.57L35.84 9.57L35.84 9.57Q36.42 8.65 37.24 8.04L37.24 8.04L37.24 8.04Q38.13 7.38 38.92 7.38L38.92 7.38L38.92 7.38Q39.33 7.38 39.61 7.68L39.61 7.68L39.61 7.68Q39.87 7.98 39.87 8.35L39.87 8.35L39.87 8.35Q39.87 8.73 39.71 9.05L39.71 9.05L39.71 9.05Q39.55 9.37 39.28 9.67L39.28 9.67L39.28 9.67Q39.02 9.97 38.68 10.24L38.68 10.24L38.68 10.24Q38.34 10.52 37.99 10.76L37.99 10.76L37.99 10.76Q37.49 11.10 36.73 11.53L36.73 11.53L36.73 11.53Q36.95 12.36 37.50 12.81L37.50 12.81L37.50 12.81Q38.06 13.25 38.93 13.25L38.93 13.25L38.93 13.25Q39.67 13.25 40.45 12.82ZM38.38 10.08L38.38 10.08L38.38 10.08Q38.57 9.78 38.57 9.50L38.57 9.50L38.57 9.50Q38.57 9.22 38.51 9.03L38.51 9.03L38.51 9.03Q38.45 8.83 38.33 8.68L38.33 8.68L38.33 8.68Q38.06 8.34 37.64 8.34L37.64 8.34L37.64 8.34Q36.60 8.34 36.60 10.46L36.60 10.46L36.60 10.46Q36.60 10.83 36.66 11.20L36.66 11.20L36.66 11.20Q37.86 10.87 38.38 10.08ZM41.93 8.16L41.04 8.16L41.93 7.46L41.93 6.49L41.93 6.49Q42.30 6.23 42.46 6.09L42.46 6.09L42.46 6.09Q42.62 5.95 42.72 5.89L42.72 5.89L42.72 5.89Q42.83 5.83 42.95 5.76L42.95 5.76L42.95 5.76Q43.24 5.59 43.26 5.56L43.26 5.56L43.26 7.23L45.45 7.23L45.45 7.23Q45.36 7.23 45.00 7.55L45.00 7.55L45.00 7.55Q44.31 8.16 44.13 8.16L44.13 8.16L43.26 8.16L43.26 11.82L43.26 11.82Q43.26 13.08 43.99 13.28L43.99 13.28L43.99 13.28Q44.21 13.33 44.40 13.33L44.40 13.33L44.40 13.33Q44.71 13.33 44.93 13.24L44.93 13.24L44.93 13.24Q45.15 13.15 45.29 13.07L45.29 13.07L45.29 13.07Q44.88 13.71 44.13 14.04L44.13 14.04L44.13 14.04Q43.74 14.21 43.29 14.21L43.29 14.21L43.29 14.21Q42.84 14.21 42.59 14.05L42.59 14.05L42.59 14.05Q42.35 13.90 42.20 13.64L42.20 13.64L42.20 13.64Q41.93 13.18 41.93 12.41L41.93 12.41L41.93 8.16ZM52.25 5.17L48.68 5.17L48.68 5.17Q49.81 4.25 50.00 4.25L50.00 4.25L57.72 4.25L57.72 4.25Q57.63 4.26 57.30 4.55L57.30 4.55L57.30 4.55Q56.97 4.83 56.84 4.94L56.84 4.94L56.84 4.94Q56.53 5.17 56.39 5.17L56.39 5.17L53.59 5.17L53.59 11.43L53.59 11.43Q53.59 12.26 53.31 12.80L53.31 12.80L53.31 12.80Q53.18 13.03 53.03 13.15L53.03 13.15L55.29 13.15L55.29 13.15Q55.19 13.17 54.87 13.45L54.87 13.45L54.87 13.45Q54.54 13.74 54.41 13.84L54.41 13.84L54.41 13.84Q54.09 14.08 53.96 14.08L53.96 14.08L51.58 14.08L51.58 14.08Q51.99 13.71 52.09 13.46L52.09 13.46L52.09 13.46Q52.25 13.06 52.25 12.45L52.25 12.45L52.25 5.17ZM59.64 10.53L59.64 12.59L59.64 12.59Q59.64 13.28 60.03 13.28L60.03 13.28L60.03 13.28Q60.17 13.28 60.45 13.16L60.45 13.16L60.45 13.16Q60.18 13.75 59.65 14.05L59.65 14.05L59.65 14.05Q59.38 14.21 59.07 14.19L59.07 14.19L59.07 14.19Q58.76 14.18 58.63 14.03L58.63 14.03L58.63 14.03Q58.50 13.88 58.42 13.67L58.42 13.67L58.42 13.67Q58.31 13.33 58.31 12.80L58.31 12.80L58.31 5.00L58.31 5.00Q58.31 4.27 58.06 4.03L58.06 4.03L58.06 4.03Q57.94 3.92 57.76 3.92L57.76 3.92L57.76 3.92Q57.47 3.92 57.12 4.02L57.12 4.02L57.12 4.02Q57.96 3.36 59.64 2.30L59.64 2.30L59.64 8.57L59.64 8.57Q60.49 7.82 61.39 7.55L61.39 7.55L61.39 7.55Q61.71 7.44 62.02 7.44L62.02 7.44L62.02 7.44Q62.33 7.44 62.61 7.54L62.61 7.54L62.61 7.54Q62.88 7.64 63.10 7.82L63.10 7.82L63.10 7.82Q63.59 8.22 63.59 8.83L63.59 8.83L63.59 12.30L63.59 12.30Q63.59 13.21 64.03 13.30L64.03 13.30L64.03 13.30Q64.15 13.33 64.29 13.33L64.29 13.33L64.29 13.33Q64.50 13.33 64.88 13.16L64.88 13.16L64.88 13.16Q64.31 13.88 63.56 14.11L63.56 14.11L63.56 14.11Q63.30 14.19 63.00 14.19L63.00 14.19L63.00 14.19Q62.71 14.19 62.54 14.05L62.54 14.05L62.54 14.05Q62.38 13.90 62.32 13.69L62.32 13.69L62.32 13.69Q62.25 13.47 62.25 13.21L62.25 13.21L62.25 10.14L62.25 10.14Q62.25 9.10 61.93 8.74L61.93 8.74L61.93 8.74Q61.64 8.39 60.85 8.39L60.85 8.39L60.85 8.39Q59.79 8.39 59.66 9.84L59.66 9.84L59.66 9.84Q59.64 10.21 59.64 10.53L59.64 10.53ZM70.56 12.82L70.56 12.82L70.56 12.82Q69.62 13.86 68.24 14.12L68.24 14.12L68.24 14.12Q67.92 14.18 67.44 14.18L67.44 14.18L67.44 14.18Q66.97 14.18 66.55 13.91L66.55 13.91L66.55 13.91Q66.14 13.65 65.87 13.23L65.87 13.23L65.87 13.23Q65.37 12.43 65.37 11.27L65.37 11.27L65.37 11.27Q65.37 10.50 65.95 9.57L65.95 9.57L65.95 9.57Q66.53 8.65 67.35 8.04L67.35 8.04L67.35 8.04Q68.24 7.38 69.04 7.38L69.04 7.38L69.04 7.38Q69.45 7.38 69.73 7.68L69.73 7.68L69.73 7.68Q69.99 7.98 69.99 8.35L69.99 8.35L69.99 8.35Q69.99 8.73 69.82 9.05L69.82 9.05L69.82 9.05Q69.66 9.37 69.40 9.67L69.40 9.67L69.40 9.67Q69.13 9.97 68.79 10.24L68.79 10.24L68.79 10.24Q68.46 10.52 68.10 10.76L68.10 10.76L68.10 10.76Q67.60 11.10 66.84 11.53L66.84 11.53L66.84 11.53Q67.06 12.36 67.61 12.81L67.61 12.81L67.61 12.81Q68.17 13.25 69.04 13.25L69.04 13.25L69.04 13.25Q69.78 13.25 70.56 12.82ZM68.50 10.08L68.50 10.08L68.50 10.08Q68.68 9.78 68.68 9.50L68.68 9.50L68.68 9.50Q68.68 9.22 68.62 9.03L68.62 9.03L68.62 9.03Q68.56 8.83 68.44 8.68L68.44 8.68L68.44 8.68Q68.17 8.34 67.75 8.34L67.75 8.34L67.75 8.34Q66.71 8.34 66.71 10.46L66.71 10.46L66.71 10.46Q66.71 10.83 66.77 11.20L66.77 11.20L66.77 11.20Q67.98 10.87 68.50 10.08ZM76.87 8.61L76.87 8.61L76.87 8.61Q78.39 7.44 79.18 7.44L79.18 7.44L79.18 7.44Q79.71 7.44 80.02 7.89L80.02 7.89L80.02 7.89Q80.29 8.26 80.29 8.83L80.29 8.83L80.29 12.09L80.29 12.09Q80.29 12.71 80.36 12.90L80.36 12.90L80.36 12.90Q80.53 13.26 81.06 13.26L81.06 13.26L81.06 13.26Q81.33 13.26 81.58 13.16L81.58 13.16L81.58 13.16Q80.97 13.69 80.74 13.84L80.74 13.84L80.74 13.84Q80.21 14.18 79.81 14.18L79.81 14.18L79.81 14.18Q79.41 14.18 79.24 14.04L79.24 14.04L79.24 14.04Q79.07 13.90 79.00 13.69L79.00 13.69L79.00 13.69Q78.93 13.45 78.93 12.70L78.93 12.70L78.93 10.12L78.93 10.12Q78.93 9.37 78.79 9.05L78.79 9.05L78.79 9.05Q78.65 8.72 78.44 8.56L78.44 8.56L78.44 8.56Q78.24 8.39 77.96 8.39L77.96 8.39L77.96 8.39Q77.68 8.39 77.53 8.48L77.53 8.48L77.53 8.48Q77.38 8.56 77.27 8.69L77.27 8.69L77.27 8.69Q76.86 9.17 76.86 10.26L76.86 10.26L76.86 12.20L76.86 12.20Q76.86 12.71 76.97 12.90L76.97 12.90L76.97 12.90Q77.18 13.26 77.66 13.26L77.66 13.26L77.66 13.26Q77.93 13.26 78.18 13.16L78.18 13.16L78.18 13.16Q77.57 13.69 77.33 13.84L77.33 13.84L77.33 13.84Q76.80 14.18 76.40 14.18L76.40 14.18L76.40 14.18Q76.00 14.18 75.83 14.04L75.83 14.04L75.83 14.04Q75.67 13.90 75.60 13.69L75.60 13.69L75.60 13.69Q75.52 13.45 75.52 12.70L75.52 12.70L75.52 10.12L75.52 10.12Q75.52 9.37 75.38 9.05L75.38 9.05L75.38 9.05Q75.24 8.72 75.04 8.56L75.04 8.56L75.04 8.56Q74.83 8.39 74.55 8.39L74.55 8.39L74.55 8.39Q74.26 8.39 74.10 8.50L74.10 8.50L74.10 8.50Q73.94 8.61 73.83 8.79L73.83 8.79L73.83 8.79Q73.72 8.98 73.65 9.20L73.65 9.20L73.65 9.20Q73.58 9.43 73.54 9.67L73.54 9.67L73.54 9.67Q73.48 10.08 73.48 10.53L73.48 10.53L73.48 12.64L73.48 12.64Q73.48 13.08 73.75 13.23L73.75 13.23L73.75 13.23Q73.84 13.30 73.99 13.30L73.99 13.30L73.99 13.30Q74.13 13.30 74.29 13.23L74.29 13.23L74.29 13.23Q73.50 13.90 73.18 14.06L73.18 14.06L73.18 14.06Q72.86 14.22 72.67 14.22L72.67 14.22L72.67 14.22Q72.15 14.22 72.15 13.62L72.15 13.62L72.15 9.68L72.15 9.68Q72.15 9.44 72.15 9.20L72.15 9.20L72.15 9.20Q72.16 8.96 72.11 8.76L72.11 8.76L72.11 8.76Q71.98 8.33 71.36 8.33L71.36 8.33L71.36 8.33Q71.07 8.33 70.77 8.44L70.77 8.44L70.77 8.44Q70.95 8.38 71.23 8.12L71.23 8.12L71.23 8.12Q71.78 7.63 71.99 7.55L71.99 7.55L71.99 7.55Q72.43 7.39 72.72 7.39L72.72 7.39L72.72 7.39Q73.02 7.39 73.18 7.50L73.18 7.50L73.18 7.50Q73.33 7.61 73.40 7.78L73.40 7.78L73.40 7.78Q73.48 7.99 73.48 8.60L73.48 8.60L73.48 8.60Q74.37 7.90 75.20 7.57L75.20 7.57L75.20 7.57Q75.52 7.44 75.77 7.44L75.77 7.44L75.77 7.44Q76.02 7.44 76.22 7.54L76.22 7.54L76.22 7.54Q76.41 7.64 76.55 7.80L76.55 7.80L76.55 7.80Q76.83 8.13 76.87 8.61ZM87.23 12.82L87.23 12.82L87.23 12.82Q86.30 13.86 84.91 14.12L84.91 14.12L84.91 14.12Q84.59 14.18 84.12 14.18L84.12 14.18L84.12 14.18Q83.64 14.18 83.23 13.91L83.23 13.91L83.23 13.91Q82.81 13.65 82.54 13.23L82.54 13.23L82.54 13.23Q82.04 12.43 82.04 11.27L82.04 11.27L82.04 11.27Q82.04 10.50 82.63 9.57L82.63 9.57L82.63 9.57Q83.20 8.65 84.03 8.04L84.03 8.04L84.03 8.04Q84.92 7.38 85.71 7.38L85.71 7.38L85.71 7.38Q86.12 7.38 86.40 7.68L86.40 7.68L86.40 7.68Q86.66 7.98 86.66 8.35L86.66 8.35L86.66 8.35Q86.66 8.73 86.50 9.05L86.50 9.05L86.50 9.05Q86.33 9.37 86.07 9.67L86.07 9.67L86.07 9.67Q85.80 9.97 85.47 10.24L85.47 10.24L85.47 10.24Q85.13 10.52 84.77 10.76L84.77 10.76L84.77 10.76Q84.27 11.10 83.51 11.53L83.51 11.53L83.51 11.53Q83.73 12.36 84.29 12.81L84.29 12.81L84.29 12.81Q84.84 13.25 85.72 13.25L85.72 13.25L85.72 13.25Q86.45 13.25 87.23 12.82ZM85.17 10.08L85.17 10.08L85.17 10.08Q85.35 9.78 85.35 9.50L85.35 9.50L85.35 9.50Q85.35 9.22 85.29 9.03L85.29 9.03L85.29 9.03Q85.23 8.83 85.11 8.68L85.11 8.68L85.11 8.68Q84.85 8.34 84.42 8.34L84.42 8.34L84.42 8.34Q83.38 8.34 83.38 10.46L83.38 10.46L83.38 10.46Q83.38 10.83 83.45 11.20L83.45 11.20L83.45 11.20Q84.65 10.87 85.17 10.08Z"></path></g><!----><g data-v-423bf9ae="" id="1f82f5a2-1cc2-46ff-b689-d1a2b0708663" transform="matrix(2.994410458179972,0,0,2.994410458179972,171.08943266912044,-1.9385669710569857)" stroke="none" fill="black"><path d="M17.572 23.933l4.106 7.095L32 13.189h-8.981V7.582L11.51.972 0 7.582v13.222l11.51 6.611 6.062-3.482zm10.96-8.744l-6.855 11.846-6.855-11.846h13.71z"></path></g><!----><g data-v-423bf9ae="" id="c0671b6d-4cfc-46c4-b885-3d71322c3cc2" fill="black" transform="matrix(0.7937259214211146,0,0,0.7937259214211146,55.290030598618074,202.03038931519595)"><path d="M0.25 5.01C0.25 5.17 0.43 5.17 0.56 5.17C0.71 5.17 0.76 5.15 0.77 4.97L0.88 3.89C0.90 3.81 1.44 3.75 2.20 3.75L4.19 3.75C4.24 3.75 4.27 4.35 4.27 4.97C4.27 6.43 4.21 12.18 4.09 12.18L3.22 12.18C3.00 12.18 2.95 12.19 2.95 12.39C2.95 12.63 2.97 12.68 3.16 12.68C3.49 12.68 4.47 12.64 4.89 12.64C5.31 12.64 6.24 12.68 6.57 12.68C6.73 12.68 6.76 12.61 6.76 12.40C6.76 12.24 6.73 12.18 6.57 12.18L5.57 12.18C5.54 12.18 5.54 11.76 5.54 11.31C5.54 9.56 5.63 5.96 5.63 5.92C5.64 5.18 5.64 3.75 5.74 3.75L7.35 3.75C8.06 3.75 8.89 3.78 8.89 3.85C8.89 3.99 8.85 4.90 8.85 4.97C8.85 5.12 8.92 5.17 9.10 5.17C9.30 5.17 9.37 5.17 9.37 5.03C9.37 3.93 9.42 3.40 9.42 3.14C9.42 2.94 9.34 2.94 9.14 2.94C8.99 2.94 8.93 2.98 8.92 3.16C8.92 3.23 8.27 3.28 7.43 3.28L2.44 3.28C1.78 3.28 0.97 3.28 0.97 3.21L0.97 3.07C0.97 2.94 0.84 2.94 0.74 2.94C0.52 2.94 0.49 3.00 0.48 3.19C0.42 3.89 0.25 4.97 0.25 5.01ZM17.18 12.39C17.18 12.63 17.18 12.68 17.37 12.68C17.70 12.68 18.63 12.64 19.05 12.64C19.47 12.64 20.30 12.68 20.62 12.68C20.79 12.68 20.79 12.61 20.79 12.40C20.79 12.24 20.79 12.18 20.62 12.18L19.70 12.18C19.61 12.18 19.57 9.93 19.57 8.20C19.57 8.01 19.57 8.01 19.70 8.01L24.93 8.01C25.00 8.01 25.02 8.01 25.02 8.18L25.02 9.91C25.02 11.05 25.00 12.18 24.95 12.18L24.18 12.18C23.95 12.18 23.91 12.19 23.91 12.39C23.91 12.63 23.93 12.68 24.12 12.68C24.44 12.68 25.28 12.64 25.70 12.64C26.12 12.64 26.71 12.68 27.03 12.68C27.20 12.68 27.22 12.61 27.22 12.40C27.22 12.24 27.20 12.18 27.03 12.18L26.29 12.18C26.25 12.18 26.24 9.27 26.24 7.04C26.24 5.40 26.24 3.70 26.28 3.70L26.89 3.70C27.12 3.70 27.16 3.68 27.16 3.49C27.16 3.25 27.15 3.19 26.95 3.19C26.81 3.19 26.18 3.23 25.59 3.23C24.92 3.23 24.32 3.19 24.09 3.19C23.90 3.19 23.87 3.22 23.87 3.44C23.87 3.67 23.94 3.70 24.11 3.70L24.91 3.70C24.96 3.70 25.02 4.79 25.02 5.71L25.02 7.42C25.02 7.59 25.02 7.59 24.85 7.59L19.74 7.59C19.57 7.59 19.57 7.59 19.57 7.38C19.57 6.96 19.56 6.23 19.56 5.53C19.56 4.66 19.57 3.70 19.63 3.70L20.40 3.70C20.62 3.70 20.66 3.68 20.66 3.49C20.66 3.25 20.65 3.19 20.45 3.19C20.13 3.19 19.54 3.23 18.94 3.23C18.35 3.23 17.86 3.19 17.64 3.19C17.46 3.19 17.36 3.21 17.36 3.44C17.36 3.68 17.47 3.70 17.64 3.70L18.26 3.70C18.31 3.70 18.33 5.59 18.33 7.18L18.33 8.61C18.33 10.08 18.31 12.18 18.24 12.18L17.43 12.18C17.21 12.18 17.18 12.19 17.18 12.39ZM35.25 12.39C35.25 12.63 35.28 12.68 35.48 12.68C35.80 12.68 36.76 12.64 37.18 12.64C37.60 12.64 42.11 12.68 42.43 12.68C42.56 12.68 42.71 12.66 42.71 12.49C42.71 12.07 42.76 11.23 42.76 10.53C42.76 10.39 42.60 10.39 42.48 10.39C42.36 10.39 42.24 10.39 42.24 10.51C42.22 11.06 42.22 11.41 42.20 11.76C42.17 12.01 42.17 12.04 42.07 12.04C41.92 12.04 39.28 12.08 37.79 12.08C37.72 12.08 37.67 10.11 37.63 8.26C37.63 8.06 37.67 8.09 37.81 8.09L40.10 8.09C40.80 8.09 40.82 8.20 40.82 8.30L40.82 9.00C40.82 9.14 41.01 9.14 41.12 9.14C41.22 9.14 41.34 9.13 41.34 9.02C41.34 8.83 41.31 8.33 41.31 7.83C41.31 7.32 41.34 6.83 41.34 6.71C41.34 6.59 41.20 6.58 41.10 6.58C40.99 6.58 40.82 6.59 40.82 6.72L40.82 7.45C40.82 7.62 40.38 7.63 40.10 7.63L37.76 7.63C37.65 7.63 37.63 7.63 37.63 7.45C37.62 6.75 37.60 6.06 37.60 5.46C37.60 5.12 37.60 3.71 37.69 3.71C38.92 3.71 41.43 3.75 41.43 3.81C41.43 3.99 41.38 4.83 41.38 4.89C41.38 5.04 41.45 5.10 41.64 5.10C41.83 5.10 41.90 5.08 41.90 4.94C41.90 3.85 41.96 3.36 41.96 3.09C41.96 2.91 41.87 2.90 41.68 2.90C41.48 2.90 41.48 2.95 41.45 3.11C41.44 3.25 41.51 3.25 40.60 3.25C39.98 3.25 37.84 3.29 37.07 3.29C36.58 3.29 35.64 3.25 35.55 3.25C35.42 3.25 35.36 3.30 35.36 3.49C35.36 3.72 35.43 3.74 35.60 3.74L36.26 3.74C36.32 3.74 36.39 4.79 36.39 5.71C36.39 5.80 36.44 8.27 36.44 9.83L36.44 11.17C36.44 11.84 36.41 12.18 36.39 12.18L35.53 12.18C35.31 12.18 35.25 12.21 35.25 12.39ZM50.65 12.39C50.65 12.63 50.68 12.68 50.88 12.68C51.11 12.68 51.62 12.64 52.04 12.64C52.46 12.64 52.95 12.68 53.27 12.68C53.44 12.68 53.47 12.61 53.47 12.40C53.47 12.24 53.44 12.18 53.27 12.18L52.30 12.18C52.25 12.18 52.23 11.54 52.23 10.79C52.23 8.96 52.28 6.13 52.35 4.28C52.37 3.88 52.40 3.91 52.54 4.27L55.80 12.32C55.90 12.54 55.97 12.74 56.08 12.74C56.18 12.74 56.25 12.63 56.34 12.45C56.67 11.79 56.85 11.75 57.12 11.09L59.71 4.47C59.84 4.16 59.88 4.02 59.89 4.47C59.92 5.66 59.96 8.47 59.96 9.74C59.96 10.99 59.92 12.18 59.86 12.18L59.23 12.18C59.01 12.18 58.94 12.19 58.94 12.39C58.94 12.63 58.97 12.68 59.16 12.68C59.36 12.68 60.06 12.64 60.66 12.64C61.08 12.64 61.84 12.68 62.16 12.68C62.33 12.68 62.36 12.61 62.36 12.40C62.36 12.22 62.30 12.18 62.13 12.18L61.40 12.18C61.29 12.18 61.19 8.44 61.19 6.03L61.19 4.77C61.19 4.17 61.22 3.77 61.26 3.70L61.92 3.70C62.15 3.70 62.19 3.68 62.19 3.49C62.19 3.25 62.17 3.19 61.98 3.19C61.66 3.19 60.97 3.23 60.55 3.23L59.88 3.23C59.65 3.23 59.63 3.29 59.51 3.58L56.77 10.72C56.69 10.95 56.66 11.02 56.55 10.74L53.61 3.40C53.54 3.22 53.48 3.19 53.34 3.19C53.26 3.19 52.77 3.23 52.46 3.23C51.95 3.23 51.10 3.19 50.90 3.19C50.76 3.19 50.76 3.26 50.76 3.47C50.76 3.64 50.76 3.70 50.90 3.70L51.60 3.70C51.87 3.70 51.87 3.72 51.87 3.84C51.87 4.82 51.66 9.94 51.62 10.79C51.58 11.55 51.58 12.18 51.52 12.18L50.95 12.18C50.72 12.18 50.65 12.19 50.65 12.39ZM70.25 12.39C70.25 12.63 70.28 12.68 70.48 12.68C70.80 12.68 71.76 12.64 72.18 12.64C72.60 12.64 77.11 12.68 77.43 12.68C77.56 12.68 77.71 12.66 77.71 12.49C77.71 12.07 77.76 11.23 77.76 10.53C77.76 10.39 77.60 10.39 77.48 10.39C77.36 10.39 77.24 10.39 77.24 10.51C77.22 11.06 77.22 11.41 77.20 11.76C77.17 12.01 77.17 12.04 77.07 12.04C76.92 12.04 74.28 12.08 72.79 12.08C72.72 12.08 72.67 10.11 72.63 8.26C72.63 8.06 72.67 8.09 72.81 8.09L75.10 8.09C75.80 8.09 75.82 8.20 75.82 8.30L75.82 9.00C75.82 9.14 76.01 9.14 76.12 9.14C76.22 9.14 76.34 9.13 76.34 9.02C76.34 8.83 76.31 8.33 76.31 7.83C76.31 7.32 76.34 6.83 76.34 6.71C76.34 6.59 76.20 6.58 76.10 6.58C75.99 6.58 75.82 6.59 75.82 6.72L75.82 7.45C75.82 7.62 75.38 7.63 75.10 7.63L72.76 7.63C72.65 7.63 72.63 7.63 72.63 7.45C72.62 6.75 72.60 6.06 72.60 5.46C72.60 5.12 72.60 3.71 72.69 3.71C73.92 3.71 76.43 3.75 76.43 3.81C76.43 3.99 76.38 4.83 76.38 4.89C76.38 5.04 76.45 5.10 76.64 5.10C76.83 5.10 76.90 5.08 76.90 4.94C76.90 3.85 76.96 3.36 76.96 3.09C76.96 2.91 76.87 2.90 76.68 2.90C76.48 2.90 76.48 2.95 76.45 3.11C76.44 3.25 76.51 3.25 75.60 3.25C74.98 3.25 72.84 3.29 72.07 3.29C71.58 3.29 70.64 3.25 70.55 3.25C70.42 3.25 70.36 3.30 70.36 3.49C70.36 3.72 70.43 3.74 70.60 3.74L71.26 3.74C71.32 3.74 71.39 4.79 71.39 5.71C71.39 5.80 71.44 8.27 71.44 9.83L71.44 11.17C71.44 11.84 71.41 12.18 71.39 12.18L70.53 12.18C70.31 12.18 70.25 12.21 70.25 12.39ZM95.52 3.49C95.52 3.72 95.63 3.74 95.80 3.74L96.42 3.74C96.47 3.74 96.54 4.79 96.54 5.71C96.54 5.80 96.60 8.27 96.60 9.83L96.60 11.17C96.60 11.84 96.59 12.18 96.53 12.18L95.94 12.18C95.72 12.18 95.65 12.19 95.65 12.39C95.65 12.63 95.66 12.68 95.86 12.68C96.07 12.68 96.91 12.64 97.33 12.64C97.75 12.64 98.69 12.68 99.01 12.68C99.18 12.68 99.20 12.61 99.20 12.40C99.20 12.24 99.18 12.18 99.01 12.18L97.87 12.18C97.82 12.18 97.83 10.16 97.79 8.33C97.79 8.08 97.78 8.09 97.97 8.09L100.39 8.09C101.09 8.09 101.12 8.19 101.12 8.30L101.12 9.16C101.12 9.28 101.30 9.28 101.42 9.28C101.51 9.28 101.64 9.28 101.64 9.17C101.64 8.99 101.61 8.33 101.61 7.83C101.61 7.32 101.64 6.82 101.64 6.69C101.64 6.58 101.53 6.58 101.40 6.58C101.23 6.58 101.12 6.58 101.12 6.71L101.12 7.45C101.12 7.62 100.67 7.63 100.39 7.63L97.97 7.63C97.76 7.63 97.79 7.66 97.79 7.45C97.78 7.13 97.76 6.15 97.76 5.26C97.76 4.52 97.78 3.71 97.85 3.71C99.25 3.71 101.43 3.75 101.72 3.79C101.72 3.96 101.68 4.82 101.68 4.89C101.68 5.04 101.75 5.10 101.93 5.10C102.13 5.10 102.20 5.08 102.20 4.94C102.20 3.85 102.26 3.36 102.26 3.09C102.26 2.93 102.17 2.90 101.98 2.90C101.85 2.90 101.78 2.90 101.75 3.11C101.74 3.25 101.81 3.25 100.86 3.25C100.25 3.25 97.97 3.29 97.23 3.29C96.74 3.29 95.80 3.25 95.70 3.25C95.58 3.25 95.52 3.30 95.52 3.49ZM110.29 8.15C110.29 11.17 112.63 12.80 114.88 12.80C117.67 12.80 119.64 10.89 119.64 8.06C119.64 5.33 117.89 3.11 115.09 3.11C112.49 3.11 110.29 5.10 110.29 8.15ZM111.69 7.77C111.69 5.64 112.98 3.58 114.95 3.58C117.19 3.58 118.27 5.81 118.27 7.94C118.27 10.08 117.17 12.32 114.90 12.32C112.91 12.32 111.69 10.28 111.69 7.77ZM127.75 3.51C127.75 3.72 127.82 3.79 128.02 3.79L128.83 3.77C128.93 3.77 128.97 6.61 128.97 8.55L128.97 10.42C128.97 11.30 128.95 12.18 128.91 12.18L128.31 12.18C128.09 12.18 128.02 12.19 128.02 12.39C128.02 12.63 128.06 12.68 128.25 12.68C128.38 12.68 129.21 12.64 129.63 12.64C130.05 12.64 130.82 12.68 131.14 12.68C131.31 12.68 131.33 12.61 131.33 12.40C131.33 12.24 131.31 12.18 131.14 12.18L130.33 12.18C130.26 12.18 130.17 9.18 130.17 8.37C130.17 8.30 130.17 8.26 130.28 8.26C130.68 8.26 131.28 8.27 131.57 8.27C133.81 8.32 133.95 10.00 133.95 11.68L133.95 12.49C133.95 12.61 134.01 12.64 134.11 12.64C134.11 12.64 135.55 12.68 136.02 12.68C136.19 12.68 136.25 12.64 136.25 12.53C136.25 12.24 136.19 12.18 136.04 12.18L135.39 12.18C135.30 12.18 135.27 12.14 135.24 11.31C135.16 8.99 133.78 8.34 132.87 8.05C132.73 8.01 132.76 8.01 132.87 7.95C133.46 7.69 134.78 6.94 134.78 5.63C134.78 3.63 133.08 3.21 131.68 3.21C131.36 3.21 130.07 3.29 129.65 3.29C129.23 3.29 128.25 3.26 128.03 3.26C127.85 3.26 127.75 3.28 127.75 3.51ZM130.17 7.80L130.17 4.40C130.17 4.05 130.20 3.68 130.24 3.68C130.45 3.65 130.73 3.65 130.96 3.65C132.26 3.65 133.50 4.47 133.50 5.82C133.50 6.99 132.96 7.57 132.30 7.88C132.26 7.90 132.22 7.90 132.15 7.90C131.67 7.88 130.96 7.88 130.35 7.87C130.19 7.87 130.17 7.85 130.17 7.80ZM153.45 12.46C153.45 12.63 153.47 12.70 153.65 12.70C153.80 12.70 155.04 12.64 155.43 12.64C156.28 12.64 157.16 12.70 158.02 12.70C160.64 12.70 163.03 11.07 163.03 7.91C163.03 4.89 160.69 3.07 157.65 3.07C157.09 3.07 155.83 3.23 154.80 3.23C154.32 3.23 153.86 3.22 153.80 3.22C153.62 3.22 153.61 3.32 153.61 3.49C153.61 3.68 153.68 3.70 153.80 3.70L154.77 3.67C154.80 3.67 154.80 4.20 154.80 4.72C154.80 5.91 154.71 12.21 154.63 12.21L153.73 12.21C153.55 12.21 153.45 12.22 153.45 12.46ZM156.03 11.40C156.03 9.46 156.03 7.52 156.04 5.60C156.04 5.03 156.09 3.61 156.13 3.60C156.42 3.53 157.01 3.51 157.36 3.51C159.92 3.51 161.53 5.75 161.53 7.73C161.53 8.95 161.49 12.25 156.81 12.25C156.55 12.25 156.14 12.25 156.04 12.21C156.03 12.19 156.03 11.79 156.03 11.40ZM171.14 12.39C171.14 12.63 171.16 12.68 171.36 12.68C171.68 12.68 172.65 12.64 173.07 12.64C173.49 12.64 178.00 12.68 178.32 12.68C178.44 12.68 178.60 12.66 178.60 12.49C178.60 12.07 178.64 11.23 178.64 10.53C178.64 10.39 178.49 10.39 178.36 10.39C178.25 10.39 178.12 10.39 178.12 10.51C178.11 11.06 178.11 11.41 178.08 11.76C178.05 12.01 178.05 12.04 177.95 12.04C177.80 12.04 175.17 12.08 173.67 12.08C173.60 12.08 173.56 10.11 173.52 8.26C173.52 8.06 173.56 8.09 173.70 8.09L175.98 8.09C176.68 8.09 176.71 8.20 176.71 8.30L176.71 9.00C176.71 9.14 176.89 9.14 177.00 9.14C177.10 9.14 177.23 9.13 177.23 9.02C177.23 8.83 177.20 8.33 177.20 7.83C177.20 7.32 177.23 6.83 177.23 6.71C177.23 6.59 177.09 6.58 176.99 6.58C176.88 6.58 176.71 6.59 176.71 6.72L176.71 7.45C176.71 7.62 176.26 7.63 175.98 7.63L173.64 7.63C173.53 7.63 173.52 7.63 173.52 7.45C173.50 6.75 173.49 6.06 173.49 5.46C173.49 5.12 173.49 3.71 173.57 3.71C174.80 3.71 177.31 3.75 177.31 3.81C177.31 3.99 177.27 4.83 177.27 4.89C177.27 5.04 177.34 5.10 177.52 5.10C177.72 5.10 177.79 5.08 177.79 4.94C177.79 3.85 177.84 3.36 177.84 3.09C177.84 2.91 177.76 2.90 177.56 2.90C177.37 2.90 177.37 2.95 177.34 3.11C177.32 3.25 177.39 3.25 176.48 3.25C175.87 3.25 173.73 3.29 172.96 3.29C172.47 3.29 171.53 3.25 171.43 3.25C171.30 3.25 171.25 3.30 171.25 3.49C171.25 3.72 171.32 3.74 171.49 3.74L172.14 3.74C172.20 3.74 172.27 4.79 172.27 5.71C172.27 5.80 172.33 8.27 172.33 9.83L172.33 11.17C172.33 11.84 172.30 12.18 172.27 12.18L171.42 12.18C171.19 12.18 171.14 12.21 171.14 12.39ZM186.68 7.91C186.68 11.40 189.04 12.89 191.63 12.89C193.52 12.89 195.52 11.89 195.52 11.58C195.52 11.12 195.54 10.68 195.54 10.33C195.54 9.81 195.55 9.56 195.68 9.56L196.11 9.56C196.25 9.56 196.27 9.39 196.27 9.30C196.27 9.18 196.25 9.06 196.11 9.06C195.89 9.06 195.52 9.10 194.85 9.10C194.40 9.10 193.66 9.07 192.98 9.06C192.84 9.06 192.84 9.24 192.84 9.35C192.84 9.45 192.86 9.56 192.99 9.56L194.21 9.56C194.25 9.56 194.31 9.87 194.31 10.33C194.31 10.82 194.29 11.41 194.26 11.65C194.25 11.76 193.61 12.39 192.02 12.39C189.78 12.39 188.19 10.29 188.19 7.94C188.19 5.42 189.74 3.54 191.74 3.54C193.63 3.54 194.81 4.87 194.81 5.03C194.81 5.15 194.75 6.12 194.75 6.17C194.75 6.31 194.80 6.36 195.06 6.36C195.26 6.36 195.33 6.33 195.33 6.15C195.33 5.43 195.37 3.75 195.37 3.56C195.37 3.36 195.27 3.33 195.06 3.33C194.84 3.33 194.81 3.39 194.81 3.56L194.81 3.91C194.81 3.99 194.77 4.02 194.64 3.92C194.36 3.72 193.37 3.08 191.80 3.08C188.96 3.08 186.68 4.79 186.68 7.91ZM204.16 12.39C204.16 12.63 204.20 12.68 204.40 12.68C204.72 12.68 205.48 12.64 206.19 12.64C206.85 12.64 207.65 12.68 207.87 12.68C208.04 12.68 208.07 12.61 208.07 12.40C208.07 12.24 208.04 12.18 207.87 12.18L206.91 12.18C206.81 12.18 206.78 9.55 206.78 7.76L206.78 5.87C206.78 5.14 206.81 3.70 206.91 3.70L207.82 3.70C208.04 3.70 208.07 3.68 208.07 3.49C208.07 3.25 208.04 3.19 207.87 3.19C207.55 3.19 206.88 3.23 206.22 3.23C205.41 3.23 204.69 3.19 204.47 3.19C204.29 3.19 204.22 3.21 204.22 3.44C204.22 3.68 204.30 3.70 204.47 3.70L205.39 3.70C205.44 3.70 205.51 4.79 205.51 5.71L205.51 7.08C205.51 8.92 205.49 12.18 205.38 12.18L204.46 12.18C204.23 12.18 204.16 12.19 204.16 12.39ZM215.70 5.01C215.70 5.17 215.88 5.17 216.01 5.17C216.16 5.17 216.20 5.15 216.22 4.97L216.33 3.89C216.34 3.81 216.89 3.75 217.64 3.75L219.63 3.75C219.69 3.75 219.72 4.35 219.72 4.97C219.72 6.43 219.66 12.18 219.53 12.18L218.67 12.18C218.44 12.18 218.40 12.19 218.40 12.39C218.40 12.63 218.41 12.68 218.61 12.68C218.93 12.68 219.91 12.64 220.33 12.64C220.75 12.64 221.69 12.68 222.01 12.68C222.18 12.68 222.21 12.61 222.21 12.40C222.21 12.24 222.18 12.18 222.01 12.18L221.02 12.18C220.99 12.18 220.99 11.76 220.99 11.31C220.99 9.56 221.07 5.96 221.07 5.92C221.09 5.18 221.09 3.75 221.19 3.75L222.80 3.75C223.51 3.75 224.34 3.78 224.34 3.85C224.34 3.99 224.29 4.90 224.29 4.97C224.29 5.12 224.36 5.17 224.55 5.17C224.74 5.17 224.81 5.17 224.81 5.03C224.81 3.93 224.87 3.40 224.87 3.14C224.87 2.94 224.78 2.94 224.59 2.94C224.43 2.94 224.38 2.98 224.36 3.16C224.36 3.23 223.72 3.28 222.88 3.28L217.88 3.28C217.22 3.28 216.41 3.28 216.41 3.21L216.41 3.07C216.41 2.94 216.29 2.94 216.19 2.94C215.96 2.94 215.94 3.00 215.92 3.19C215.87 3.89 215.70 4.97 215.70 5.01ZM230.66 12.39C230.66 12.63 230.66 12.68 230.86 12.68C231.03 12.68 231.35 12.64 231.92 12.64C232.54 12.64 233.09 12.68 233.24 12.68C233.41 12.68 233.41 12.61 233.41 12.40C233.41 12.24 233.41 12.18 233.24 12.18L232.16 12.18C232.16 12.18 232.15 12.18 232.15 12.17C232.16 11.87 232.93 9.90 233.28 9.02C233.35 8.83 233.37 8.79 233.58 8.79L236.40 8.79C236.54 8.79 236.54 8.81 236.61 9.03C236.88 9.77 237.59 11.89 237.59 12.17C237.59 12.18 237.58 12.18 237.58 12.18L236.81 12.18C236.59 12.18 236.57 12.19 236.57 12.39C236.57 12.63 236.59 12.68 236.75 12.68C237.08 12.68 237.94 12.64 238.36 12.64C238.78 12.64 239.46 12.68 239.67 12.68C239.81 12.68 239.82 12.61 239.82 12.40C239.82 12.24 239.81 12.18 239.67 12.18L239.18 12.18C239.08 12.18 238.06 9.34 237.50 7.78L235.82 3.07C235.80 3.00 235.73 2.94 235.65 2.94C235.52 2.94 235.42 3.16 235.34 3.35C235.19 3.71 234.95 3.84 234.84 4.13L233.35 7.57C233.17 8.01 231.46 12.18 231.34 12.18L230.92 12.18C230.69 12.18 230.66 12.19 230.66 12.39ZM233.56 8.33C233.56 8.30 233.59 8.23 233.63 8.13L235.00 4.77C235.05 4.66 235.07 4.61 235.10 4.61C235.12 4.61 235.13 4.63 235.17 4.77L236.33 8.18C236.36 8.25 236.38 8.29 236.38 8.32C236.38 8.36 236.35 8.37 236.25 8.37L233.74 8.37C233.56 8.37 233.56 8.34 233.56 8.33ZM247.58 12.39C247.58 12.63 247.60 12.68 247.80 12.68C248.12 12.68 249.09 12.64 249.51 12.64C249.93 12.64 254.28 12.68 254.60 12.68C254.87 12.68 254.94 12.66 254.95 12.49C255.01 12.08 255.25 10.72 255.25 10.60C255.25 10.47 255.09 10.44 254.93 10.43C254.83 10.42 254.74 10.46 254.73 10.56L254.56 11.76C254.52 12.05 254.51 12.03 254.28 12.04C254.13 12.05 251.62 12.12 250.19 12.12C250.15 12.12 250.11 11.38 250.11 10.54L250.11 6.66C250.11 5.40 250.12 3.70 250.22 3.70L251.20 3.70C251.44 3.70 251.47 3.63 251.47 3.44C251.47 3.23 251.45 3.19 251.22 3.19C250.89 3.19 249.96 3.23 249.54 3.23C249.12 3.23 248.18 3.19 247.95 3.19C247.73 3.19 247.67 3.22 247.67 3.44C247.67 3.65 247.72 3.70 247.91 3.70L248.74 3.70C248.78 3.70 248.81 4.23 248.81 4.90L248.81 8.13C248.81 10.07 248.78 12.18 248.70 12.18L247.86 12.18C247.63 12.18 247.58 12.21 247.58 12.39ZM272.59 12.39C272.59 12.63 272.62 12.68 272.82 12.68C273.06 12.68 273.56 12.64 273.98 12.64C274.40 12.64 274.89 12.68 275.21 12.68C275.38 12.68 275.41 12.61 275.41 12.40C275.41 12.24 275.38 12.18 275.21 12.18L274.25 12.18C274.19 12.18 274.18 11.54 274.18 10.79C274.18 8.96 274.22 6.13 274.29 4.28C274.32 3.88 274.34 3.91 274.48 4.27L277.75 12.32C277.84 12.54 277.91 12.74 278.03 12.74C278.12 12.74 278.19 12.63 278.28 12.45C278.61 11.79 278.80 11.75 279.06 11.09L281.65 4.47C281.78 4.16 281.82 4.02 281.83 4.47C281.86 5.66 281.90 8.47 281.90 9.74C281.90 10.99 281.86 12.18 281.81 12.18L281.18 12.18C280.95 12.18 280.88 12.19 280.88 12.39C280.88 12.63 280.91 12.68 281.11 12.68C281.30 12.68 282.00 12.64 282.60 12.64C283.02 12.64 283.78 12.68 284.10 12.68C284.27 12.68 284.30 12.61 284.30 12.40C284.30 12.22 284.24 12.18 284.07 12.18L283.35 12.18C283.23 12.18 283.14 8.44 283.14 6.03L283.14 4.77C283.14 4.17 283.16 3.77 283.21 3.70L283.86 3.70C284.09 3.70 284.13 3.68 284.13 3.49C284.13 3.25 284.12 3.19 283.92 3.19C283.60 3.19 282.91 3.23 282.49 3.23L281.82 3.23C281.60 3.23 281.57 3.29 281.46 3.58L278.71 10.72C278.63 10.95 278.60 11.02 278.49 10.74L275.55 3.40C275.48 3.22 275.42 3.19 275.28 3.19C275.20 3.19 274.71 3.23 274.40 3.23C273.90 3.23 273.04 3.19 272.85 3.19C272.71 3.19 272.71 3.26 272.71 3.47C272.71 3.64 272.71 3.70 272.85 3.70L273.55 3.70C273.81 3.70 273.81 3.72 273.81 3.84C273.81 4.82 273.60 9.94 273.56 10.79C273.52 11.55 273.52 12.18 273.46 12.18L272.89 12.18C272.66 12.18 272.59 12.19 272.59 12.39ZM292.05 12.39C292.05 12.63 292.05 12.68 292.25 12.68C292.42 12.68 292.74 12.64 293.31 12.64C293.93 12.64 294.48 12.68 294.63 12.68C294.80 12.68 294.80 12.61 294.80 12.40C294.80 12.24 294.80 12.18 294.63 12.18L293.55 12.18C293.55 12.18 293.54 12.18 293.54 12.17C293.55 11.87 294.32 9.90 294.67 9.02C294.74 8.83 294.76 8.79 294.97 8.79L297.79 8.79C297.93 8.79 297.93 8.81 298.00 9.03C298.27 9.77 298.98 11.89 298.98 12.17C298.98 12.18 298.97 12.18 298.97 12.18L298.20 12.18C297.98 12.18 297.96 12.19 297.96 12.39C297.96 12.63 297.98 12.68 298.14 12.68C298.47 12.68 299.33 12.64 299.75 12.64C300.17 12.64 300.85 12.68 301.06 12.68C301.20 12.68 301.21 12.61 301.21 12.40C301.21 12.24 301.20 12.18 301.06 12.18L300.57 12.18C300.47 12.18 299.45 9.34 298.89 7.78L297.21 3.07C297.19 3.00 297.12 2.94 297.04 2.94C296.91 2.94 296.81 3.16 296.73 3.35C296.58 3.71 296.34 3.84 296.23 4.13L294.74 7.57C294.56 8.01 292.85 12.18 292.73 12.18L292.31 12.18C292.08 12.18 292.05 12.19 292.05 12.39ZM294.95 8.33C294.95 8.30 294.98 8.23 295.02 8.13L296.39 4.77C296.44 4.66 296.46 4.61 296.49 4.61C296.51 4.61 296.52 4.63 296.56 4.77L297.72 8.18C297.75 8.25 297.77 8.29 297.77 8.32C297.77 8.36 297.74 8.37 297.64 8.37L295.13 8.37C294.95 8.37 294.95 8.34 294.95 8.33ZM308.97 3.51C308.97 3.72 309.04 3.79 309.23 3.79L310.04 3.77C310.14 3.77 310.18 6.61 310.18 8.55L310.18 10.42C310.18 11.30 310.17 12.18 310.13 12.18L309.53 12.18C309.30 12.18 309.23 12.19 309.23 12.39C309.23 12.63 309.27 12.68 309.47 12.68C309.60 12.68 310.42 12.64 310.84 12.64C311.26 12.64 312.03 12.68 312.35 12.68C312.52 12.68 312.55 12.61 312.55 12.40C312.55 12.24 312.52 12.18 312.35 12.18L311.54 12.18C311.47 12.18 311.39 9.18 311.39 8.37C311.39 8.30 311.39 8.26 311.50 8.26C311.89 8.26 312.49 8.27 312.79 8.27C315.03 8.32 315.17 10.00 315.17 11.68L315.17 12.49C315.17 12.61 315.22 12.64 315.32 12.64C315.32 12.64 316.76 12.68 317.24 12.68C317.41 12.68 317.46 12.64 317.46 12.53C317.46 12.24 317.41 12.18 317.25 12.18L316.61 12.18C316.51 12.18 316.48 12.14 316.46 11.31C316.37 8.99 315.00 8.34 314.09 8.05C313.95 8.01 313.98 8.01 314.09 7.95C314.68 7.69 315.99 6.94 315.99 5.63C315.99 3.63 314.30 3.21 312.90 3.21C312.58 3.21 311.29 3.29 310.87 3.29C310.45 3.29 309.47 3.26 309.25 3.26C309.06 3.26 308.97 3.28 308.97 3.51ZM311.39 7.80L311.39 4.40C311.39 4.05 311.42 3.68 311.46 3.68C311.67 3.65 311.95 3.65 312.17 3.65C313.47 3.65 314.72 4.47 314.72 5.82C314.72 6.99 314.17 7.57 313.52 7.88C313.47 7.90 313.43 7.90 313.36 7.90C312.89 7.88 312.17 7.88 311.57 7.87C311.40 7.87 311.39 7.85 311.39 7.80ZM324.94 12.39C324.94 12.63 324.95 12.68 325.15 12.68C325.47 12.68 326.37 12.64 326.79 12.64C327.21 12.64 328.16 12.68 328.48 12.68C328.65 12.68 328.66 12.61 328.66 12.40C328.66 12.24 328.64 12.18 328.47 12.18L327.46 12.18C327.36 12.18 327.33 10.12 327.33 8.46C327.33 8.30 327.33 8.30 327.50 8.30L327.77 8.30C327.98 8.30 327.98 8.32 328.05 8.40L331.09 12.00C331.18 12.11 331.25 12.18 331.04 12.18L330.58 12.18C330.40 12.18 330.33 12.19 330.33 12.39C330.33 12.63 330.33 12.68 330.53 12.68C330.85 12.68 331.55 12.64 331.97 12.64C332.39 12.64 333.07 12.68 333.40 12.68C333.56 12.68 333.56 12.61 333.56 12.40C333.56 12.24 333.56 12.18 333.40 12.18L333.17 12.18C332.99 12.18 332.89 12.10 332.77 11.96L329 7.62C328.86 7.45 328.83 7.50 328.96 7.36C329.41 6.83 331.94 3.77 332.01 3.77L332.68 3.77C332.91 3.77 332.93 3.75 332.93 3.56C332.93 3.32 332.93 3.26 332.74 3.26C332.54 3.26 332.09 3.30 331.58 3.30C331.04 3.30 330.57 3.26 330.34 3.26C330.16 3.26 330.06 3.28 330.06 3.51C330.06 3.75 330.18 3.77 330.34 3.77L330.90 3.77C331.07 3.77 331.07 3.84 330.96 3.99C330.43 4.66 328.08 7.92 327.78 7.92L327.47 7.92C327.33 7.92 327.33 7.88 327.33 7.69L327.33 5.94C327.33 5.21 327.40 3.77 327.50 3.77L328.27 3.77C328.50 3.77 328.54 3.75 328.54 3.56C328.54 3.32 328.52 3.26 328.33 3.26C328.01 3.26 327.24 3.30 326.82 3.30C326.23 3.30 325.57 3.26 325.35 3.26C325.16 3.26 325.07 3.28 325.07 3.51C325.07 3.75 325.18 3.77 325.35 3.77L325.99 3.77C326.05 3.77 326.07 4.86 326.07 5.78L326.07 9.84C326.07 11.00 326.06 12.18 325.98 12.18L325.23 12.18C325.01 12.18 324.94 12.19 324.94 12.39ZM341.04 12.39C341.04 12.63 341.07 12.68 341.26 12.68C341.59 12.68 342.55 12.64 342.97 12.64C343.39 12.64 347.90 12.68 348.22 12.68C348.35 12.68 348.50 12.66 348.50 12.49C348.50 12.07 348.54 11.23 348.54 10.53C348.54 10.39 348.39 10.39 348.26 10.39C348.15 10.39 348.03 10.39 348.03 10.51C348.01 11.06 348.01 11.41 347.98 11.76C347.96 12.01 347.96 12.04 347.86 12.04C347.70 12.04 345.07 12.08 343.57 12.08C343.50 12.08 343.46 10.11 343.42 8.26C343.42 8.06 343.46 8.09 343.60 8.09L345.88 8.09C346.58 8.09 346.61 8.20 346.61 8.30L346.61 9.00C346.61 9.14 346.79 9.14 346.91 9.14C347.00 9.14 347.13 9.13 347.13 9.02C347.13 8.83 347.10 8.33 347.10 7.83C347.10 7.32 347.13 6.83 347.13 6.71C347.13 6.59 346.99 6.58 346.89 6.58C346.78 6.58 346.61 6.59 346.61 6.72L346.61 7.45C346.61 7.62 346.16 7.63 345.88 7.63L343.55 7.63C343.43 7.63 343.42 7.63 343.42 7.45C343.41 6.75 343.39 6.06 343.39 5.46C343.39 5.12 343.39 3.71 343.48 3.71C344.71 3.71 347.21 3.75 347.21 3.81C347.21 3.99 347.17 4.83 347.17 4.89C347.17 5.04 347.24 5.10 347.42 5.10C347.62 5.10 347.69 5.08 347.69 4.94C347.69 3.85 347.75 3.36 347.75 3.09C347.75 2.91 347.66 2.90 347.47 2.90C347.27 2.90 347.27 2.95 347.24 3.11C347.23 3.25 347.30 3.25 346.39 3.25C345.77 3.25 343.63 3.29 342.86 3.29C342.37 3.29 341.43 3.25 341.33 3.25C341.21 3.25 341.15 3.30 341.15 3.49C341.15 3.72 341.22 3.74 341.39 3.74L342.05 3.74C342.10 3.74 342.17 4.79 342.17 5.71C342.17 5.80 342.23 8.27 342.23 9.83L342.23 11.17C342.23 11.84 342.20 12.18 342.17 12.18L341.32 12.18C341.10 12.18 341.04 12.21 341.04 12.39ZM356.24 5.01C356.24 5.17 356.43 5.17 356.55 5.17C356.71 5.17 356.75 5.15 356.76 4.97L356.87 3.89C356.89 3.81 357.43 3.75 358.19 3.75L360.18 3.75C360.23 3.75 360.26 4.35 360.26 4.97C360.26 6.43 360.21 12.18 360.08 12.18L359.21 12.18C358.99 12.18 358.95 12.19 358.95 12.39C358.95 12.63 358.96 12.68 359.16 12.68C359.48 12.68 360.46 12.64 360.88 12.64C361.30 12.64 362.24 12.68 362.56 12.68C362.73 12.68 362.75 12.61 362.75 12.40C362.75 12.24 362.73 12.18 362.56 12.18L361.56 12.18C361.54 12.18 361.54 11.76 361.54 11.31C361.54 9.56 361.62 5.96 361.62 5.92C361.63 5.18 361.63 3.75 361.73 3.75L363.34 3.75C364.06 3.75 364.88 3.78 364.88 3.85C364.88 3.99 364.84 4.90 364.84 4.97C364.84 5.12 364.91 5.17 365.09 5.17C365.29 5.17 365.36 5.17 365.36 5.03C365.36 3.93 365.41 3.40 365.41 3.14C365.41 2.94 365.33 2.94 365.13 2.94C364.98 2.94 364.92 2.98 364.91 3.16C364.91 3.23 364.27 3.28 363.43 3.28L358.43 3.28C357.77 3.28 356.96 3.28 356.96 3.21L356.96 3.07C356.96 2.94 356.83 2.94 356.73 2.94C356.51 2.94 356.48 3.00 356.47 3.19C356.41 3.89 356.24 4.97 356.24 5.01ZM373.03 12.39C373.03 12.63 373.07 12.68 373.27 12.68C373.59 12.68 374.35 12.64 375.06 12.64C375.72 12.64 376.52 12.68 376.74 12.68C376.91 12.68 376.94 12.61 376.94 12.40C376.94 12.24 376.91 12.18 376.74 12.18L375.77 12.18C375.68 12.18 375.65 9.55 375.65 7.76L375.65 5.87C375.65 5.14 375.68 3.70 375.77 3.70L376.68 3.70C376.91 3.70 376.94 3.68 376.94 3.49C376.94 3.25 376.91 3.19 376.74 3.19C376.42 3.19 375.75 3.23 375.09 3.23C374.28 3.23 373.56 3.19 373.34 3.19C373.16 3.19 373.09 3.21 373.09 3.44C373.09 3.68 373.17 3.70 373.34 3.70L374.26 3.70C374.30 3.70 374.37 4.79 374.37 5.71L374.37 7.08C374.37 8.92 374.36 12.18 374.25 12.18L373.32 12.18C373.10 12.18 373.03 12.19 373.03 12.39ZM384.83 12.39C384.83 12.63 384.85 12.68 385.04 12.68C385.22 12.68 385.60 12.64 386.22 12.64C386.85 12.64 387.41 12.68 387.73 12.68C387.90 12.68 387.90 12.61 387.90 12.40C387.90 12.24 387.90 12.18 387.73 12.18L386.53 12.18C386.48 12.18 386.47 11.54 386.47 10.79C386.47 9.46 386.48 7.48 386.48 5.99C386.48 5.25 386.48 4.84 386.50 4.28C386.50 4.02 386.57 4.14 386.69 4.28L393.58 12.66C393.67 12.75 393.75 12.89 393.86 12.89C393.97 12.89 394.04 12.77 394.04 12.54C394.04 12.39 394.21 6.65 394.23 4.48C394.23 4.06 394.25 3.70 394.28 3.70L394.91 3.70C395.14 3.70 395.19 3.68 395.19 3.49C395.19 3.25 395.19 3.19 395.00 3.19C394.80 3.19 394.37 3.23 393.81 3.23C393.19 3.23 392.39 3.19 392.29 3.19C392.13 3.19 392.13 3.26 392.13 3.47C392.13 3.64 392.13 3.70 392.29 3.70L393.60 3.70C393.61 3.70 393.61 4.33 393.61 4.44C393.61 5.85 393.64 8.33 393.64 9.70L393.64 10.29C393.64 10.57 393.62 10.65 393.40 10.37L387.72 3.39C387.60 3.25 387.58 3.19 387.41 3.19C387.32 3.19 386.95 3.23 386.64 3.23C386.34 3.23 385.27 3.19 385.07 3.19C384.90 3.19 384.87 3.26 384.87 3.47C384.87 3.64 384.90 3.70 385.07 3.70L385.98 3.70C385.98 4.17 385.94 8.53 385.87 10.79C385.84 11.69 385.85 12.18 385.74 12.18L385.10 12.18C384.87 12.18 384.83 12.19 384.83 12.39ZM403.30 7.91C403.30 11.40 405.66 12.89 408.25 12.89C410.14 12.89 412.15 11.89 412.15 11.58C412.15 11.12 412.16 10.68 412.16 10.33C412.16 9.81 412.17 9.56 412.30 9.56L412.73 9.56C412.87 9.56 412.89 9.39 412.89 9.30C412.89 9.18 412.87 9.06 412.73 9.06C412.51 9.06 412.15 9.10 411.47 9.10C411.03 9.10 410.28 9.07 409.60 9.06C409.46 9.06 409.46 9.24 409.46 9.35C409.46 9.45 409.49 9.56 409.61 9.56L410.83 9.56C410.87 9.56 410.93 9.87 410.93 10.33C410.93 10.82 410.91 11.41 410.89 11.65C410.87 11.76 410.23 12.39 408.65 12.39C406.41 12.39 404.81 10.29 404.81 7.94C404.81 5.42 406.36 3.54 408.37 3.54C410.26 3.54 411.43 4.87 411.43 5.03C411.43 5.15 411.38 6.12 411.38 6.17C411.38 6.31 411.42 6.36 411.68 6.36C411.88 6.36 411.95 6.33 411.95 6.15C411.95 5.43 411.99 3.75 411.99 3.56C411.99 3.36 411.89 3.33 411.68 3.33C411.46 3.33 411.43 3.39 411.43 3.56L411.43 3.91C411.43 3.99 411.39 4.02 411.26 3.92C410.98 3.72 409.99 3.08 408.42 3.08C405.58 3.08 403.30 4.79 403.30 7.91Z"></path></g></svg>