<svg data-v-423bf9ae="" xmlns="http://www.w3.org/2000/svg" viewBox="0 0 436.69743445607105 60" class="font"><!----><!----><!----><g data-v-423bf9ae="" id="d6c0e00e-e9dd-4a94-96f5-d0a554e78645" fill="white" transform="matrix(5.029338077243787,0,0,5.029338077243787,-2.0117296435942933,-11.5674770994246)"><path d="M13.46 11.58L13.46 11.58L13.46 11.58Q13.46 12.60 13.11 13.15L13.11 13.15L15.13 13.15L15.13 13.15Q15.00 13.19 14.83 13.34L14.83 13.34L14.83 13.34Q14.66 13.49 14.48 13.65L14.48 13.65L14.48 13.65Q13.99 14.08 13.80 14.08L13.80 14.08L11.77 14.08L11.77 14.08Q12.11 13.58 12.11 12.70L12.11 12.70L12.11 12.70Q12.11 11.83 12.07 11.02L12.07 11.02L12.07 11.02Q12.02 10.21 12.00 9.63L12.00 9.63L12.00 9.63Q11.97 9.04 11.95 8.66L11.95 8.66L11.95 8.66Q11.94 8.28 11.92 7.89L11.92 7.89L11.92 7.89Q11.87 6.75 11.85 6.38L11.85 6.38L11.85 6.38Q11.24 7.44 10.61 8.58L10.61 8.58L10.61 8.58Q9.97 9.71 9.52 10.50L9.52 10.50L9.52 10.50Q9.07 11.29 8.81 11.80L8.81 11.80L8.81 11.80Q8.54 12.31 8.25 12.82L8.25 12.82L8.25 12.82Q8.19 12.92 7.60 13.30L7.60 13.30L7.60 13.30Q7.01 13.69 6.92 13.75L6.92 13.75L6.92 13.75Q6.55 12.60 5.98 11.61L5.98 11.61L5.98 11.61Q5.41 10.62 5.04 10.02L5.04 10.02L5.04 10.02Q4.68 9.43 4.32 8.83L4.32 8.83L3.23 7.02L3.23 7.02Q2.94 10.55 2.79 11.34L2.79 11.34L2.79 11.34Q2.63 12.13 2.49 12.53L2.49 12.53L2.49 12.53Q2.35 12.93 2.14 13.15L2.14 13.15L4.33 13.15L4.33 13.15Q3.19 14.08 3.00 14.08L3.00 14.08L0.75 14.08L0.75 14.08Q1.15 13.69 1.42 12.35L1.42 12.35L1.42 12.35Q1.72 10.86 2.12 5.17L2.12 5.17L0.40 5.17L0.40 5.17Q0.90 4.68 1.59 4.30L1.59 4.30L1.59 4.30Q1.68 4.25 1.73 4.25L1.73 4.25L3.45 4.25L3.45 4.25Q4.03 5.20 4.59 6.14L4.59 6.14L5.73 8.03L5.73 8.03Q6.02 8.51 6.31 8.99L6.31 8.99L6.31 8.99Q6.60 9.46 6.88 9.94L6.88 9.94L6.88 9.94Q7.56 11.11 7.91 11.92L7.91 11.92L7.91 11.92Q8.56 10.78 9.44 9.17L9.44 9.17L9.44 9.17Q11.01 6.28 11.77 4.97L11.77 4.97L11.77 4.97Q11.90 4.76 12.78 4.24L12.78 4.24L12.78 4.24Q12.98 4.12 13.10 4.04L13.10 4.04L13.10 4.04Q13.26 7.03 13.33 8.78L13.33 8.78L13.33 8.78Q13.41 10.53 13.43 10.88L13.43 10.88L13.43 10.88Q13.46 11.22 13.46 11.58ZM20.30 9.28L20.30 12.06L20.28 12.54L20.28 12.54Q20.28 13.07 20.58 13.21L20.58 13.21L20.58 13.21Q20.70 13.27 20.85 13.27L20.85 13.27L20.85 13.27Q21.09 13.27 21.34 13.16L21.34 13.16L21.34 13.16Q21.08 13.27 20.89 13.45L20.89 13.45L20.89 13.45Q20.70 13.62 20.50 13.79L20.50 13.79L20.50 13.79Q20.01 14.21 19.51 14.21L19.51 14.21L19.51 14.21Q19.01 14.21 18.98 13.63L18.98 13.63L18.98 13.63Q18.96 13.48 18.96 13.33L18.96 13.33L18.96 13.33Q17.73 14.18 16.71 14.18L16.71 14.18L16.71 14.18Q15.84 14.18 15.50 13.66L15.50 13.66L15.50 13.66Q15.38 13.47 15.38 13.13L15.38 13.13L15.38 13.13Q15.38 12.80 15.59 12.46L15.59 12.46L15.59 12.46Q15.79 12.12 16.11 11.84L16.11 11.84L16.11 11.84Q16.67 11.32 17.46 10.99L17.46 10.99L17.46 10.99Q18.05 10.73 18.97 10.70L18.97 10.70L18.97 10.40L18.97 10.40Q18.97 9.31 18.77 8.93L18.77 8.93L18.77 8.93Q18.57 8.54 18.26 8.36L18.26 8.36L18.26 8.36Q17.94 8.18 17.52 8.18L17.52 8.18L17.52 8.18Q16.80 8.18 16.26 8.46L16.26 8.46L16.26 8.46Q17.01 7.84 17.36 7.64L17.36 7.64L17.36 7.64Q18.07 7.24 18.66 7.24L18.66 7.24L18.66 7.24Q19.24 7.24 19.54 7.41L19.54 7.41L19.54 7.41Q19.83 7.58 20.00 7.86L20.00 7.86L20.00 7.86Q20.30 8.35 20.30 9.28L20.30 9.28ZM17.08 13.04L17.08 13.04L17.08 13.04Q17.25 13.16 17.47 13.21L17.47 13.21L17.47 13.21Q17.68 13.27 18.12 13.27L18.12 13.27L18.12 13.27Q18.55 13.27 18.97 13.06L18.97 13.06L18.97 11.63L17.86 11.63L17.86 11.63Q17.27 11.63 16.82 11.71L16.82 11.71L16.82 11.71Q16.73 12.00 16.73 12.27L16.73 12.27L16.73 12.27Q16.73 12.54 16.83 12.73L16.83 12.73L16.83 12.73Q16.92 12.92 17.08 13.04ZM28.14 7.44L28.14 7.44L28.14 7.44Q27.31 8.65 26.13 8.65L26.13 8.65L26.13 8.65Q25.94 8.65 25.64 8.50L25.64 8.50L25.64 8.50Q25.07 8.22 24.87 8.22L24.87 8.22L24.87 8.22Q24.66 8.22 24.54 8.35L24.54 8.35L24.54 8.35Q24.42 8.48 24.34 8.71L24.34 8.71L24.34 8.71Q24.15 9.21 24.15 10.02L24.15 10.02L24.15 12.64L24.15 12.64Q24.15 13.08 24.42 13.23L24.42 13.23L24.42 13.23Q24.51 13.30 24.66 13.30L24.66 13.30L24.66 13.30Q24.80 13.30 24.96 13.23L24.96 13.23L24.96 13.23Q24.82 13.35 24.69 13.52L24.69 13.52L24.69 13.52Q24.56 13.69 24.40 13.84L24.40 13.84L24.40 13.84Q24.01 14.22 23.47 14.22L23.47 14.22L23.47 14.22Q23.20 14.22 23.01 14.04L23.01 14.04L23.01 14.04Q22.82 13.87 22.82 13.62L22.82 13.62L22.82 9.68L22.82 9.68Q22.82 9.44 22.83 9.20L22.83 9.20L22.83 9.20Q22.83 8.96 22.78 8.76L22.78 8.76L22.78 8.76Q22.65 8.33 22.03 8.33L22.03 8.33L22.03 8.33Q21.74 8.33 21.44 8.44L21.44 8.44L21.44 8.44Q21.62 8.38 21.90 8.12L21.90 8.12L21.90 8.12Q22.45 7.63 22.66 7.55L22.66 7.55L22.66 7.55Q23.10 7.39 23.37 7.39L23.37 7.39L23.37 7.39Q23.64 7.39 23.79 7.47L23.79 7.47L23.79 7.47Q23.93 7.55 24.01 7.68L24.01 7.68L24.01 7.68Q24.15 7.91 24.15 8.38L24.15 8.38L24.15 8.38Q24.35 8.23 24.59 8.04L24.59 8.04L24.59 8.04Q24.82 7.85 25.07 7.68L25.07 7.68L25.07 7.68Q25.68 7.28 26.13 7.28L26.13 7.28L26.13 7.28Q26.40 7.28 26.69 7.43L26.69 7.43L26.69 7.43Q26.99 7.58 27.13 7.65L27.13 7.65L27.13 7.65Q27.28 7.72 27.40 7.72L27.40 7.72L27.40 7.72Q27.67 7.72 28.14 7.44ZM28.61 13.24L28.61 4.94L28.61 4.94Q28.61 3.92 28.01 3.92L28.01 3.92L28.01 3.92Q27.83 3.92 27.42 4.02L27.42 4.02L27.42 4.02Q27.70 3.81 28.01 3.57L28.01 3.57L28.01 3.57Q28.32 3.34 28.64 3.10L28.64 3.10L28.64 3.10Q29.34 2.62 29.94 2.30L29.94 2.30L29.93 8.58L29.93 8.58Q30.70 7.90 31.64 7.57L31.64 7.57L31.64 7.57Q31.95 7.46 32.19 7.46L32.19 7.46L32.19 7.46Q32.43 7.46 32.62 7.55L32.62 7.55L32.62 7.55Q32.81 7.63 32.94 7.77L32.94 7.77L32.94 7.77Q33.24 8.07 33.24 8.46L33.24 8.46L33.24 8.46Q33.24 8.84 33.04 9.15L33.04 9.15L33.04 9.15Q32.85 9.46 32.57 9.73L32.57 9.73L32.57 9.73Q32.18 10.13 31.40 10.63L31.40 10.63L31.40 10.63Q31.50 10.73 31.71 10.96L31.71 10.96L31.71 10.96Q31.92 11.20 32.18 11.48L32.18 11.48L32.18 11.48Q32.44 11.77 32.74 12.08L32.74 12.08L32.74 12.08Q33.04 12.39 33.30 12.64L33.30 12.64L33.30 12.64Q33.92 13.22 34.11 13.22L34.11 13.22L34.11 13.22Q34.59 13.22 35.05 12.95L35.05 12.95L35.05 12.95Q34.47 13.76 33.61 14.09L33.61 14.09L33.61 14.09Q33.33 14.20 33.11 14.20L33.11 14.20L33.11 14.20Q32.89 14.20 32.77 14.15L32.77 14.15L32.77 14.15Q32.64 14.10 32.53 14.03L32.53 14.03L32.53 14.03Q32.30 13.88 31.92 13.49L31.92 13.49L31.92 13.49Q31.12 12.69 29.93 11.41L29.93 11.41L29.93 12.11L29.93 12.11Q29.93 12.27 29.93 12.47L29.93 12.47L29.93 12.47Q29.93 12.67 29.97 12.86L29.97 12.86L29.97 12.86Q30.06 13.30 30.45 13.30L30.45 13.30L30.45 13.30Q30.59 13.30 30.75 13.23L30.75 13.23L30.75 13.23Q30.60 13.35 30.42 13.52L30.42 13.52L30.42 13.52Q30.23 13.69 30.02 13.85L30.02 13.85L30.02 13.85Q29.51 14.23 29.18 14.23L29.18 14.23L29.18 14.23Q28.61 14.23 28.61 13.24L28.61 13.24ZM30.90 8.39L30.90 8.39L30.90 8.39Q29.93 8.39 29.93 10.86L29.93 10.86L29.93 11.22L29.93 11.22Q31.19 10.72 31.71 9.97L31.71 9.97L31.71 9.97Q31.91 9.68 31.91 9.40L31.91 9.40L31.91 9.40Q31.91 9.13 31.83 8.95L31.83 8.95L31.83 8.95Q31.75 8.78 31.61 8.65L31.61 8.65L31.61 8.65Q31.31 8.39 30.90 8.39ZM40.45 12.82L40.45 12.82L40.45 12.82Q39.51 13.86 38.12 14.12L38.12 14.12L38.12 14.12Q37.80 14.18 37.33 14.18L37.33 14.18L37.33 14.18Q36.86 14.18 36.44 13.91L36.44 13.91L36.44 13.91Q36.03 13.65 35.76 13.23L35.76 13.23L35.76 13.23Q35.25 12.43 35.25 11.27L35.25 11.27L35.25 11.27Q35.25 10.50 35.84 9.57L35.84 9.57L35.84 9.57Q36.42 8.65 37.24 8.04L37.24 8.04L37.24 8.04Q38.13 7.38 38.92 7.38L38.92 7.38L38.92 7.38Q39.33 7.38 39.61 7.68L39.61 7.68L39.61 7.68Q39.87 7.98 39.87 8.35L39.87 8.35L39.87 8.35Q39.87 8.73 39.71 9.05L39.71 9.05L39.71 9.05Q39.55 9.37 39.28 9.67L39.28 9.67L39.28 9.67Q39.02 9.97 38.68 10.24L38.68 10.24L38.68 10.24Q38.34 10.52 37.99 10.76L37.99 10.76L37.99 10.76Q37.49 11.10 36.73 11.53L36.73 11.53L36.73 11.53Q36.95 12.36 37.50 12.81L37.50 12.81L37.50 12.81Q38.06 13.25 38.93 13.25L38.93 13.25L38.93 13.25Q39.67 13.25 40.45 12.82ZM38.38 10.08L38.38 10.08L38.38 10.08Q38.57 9.78 38.57 9.50L38.57 9.50L38.57 9.50Q38.57 9.22 38.51 9.03L38.51 9.03L38.51 9.03Q38.45 8.83 38.33 8.68L38.33 8.68L38.33 8.68Q38.06 8.34 37.64 8.34L37.64 8.34L37.64 8.34Q36.60 8.34 36.60 10.46L36.60 10.46L36.60 10.46Q36.60 10.83 36.66 11.20L36.66 11.20L36.66 11.20Q37.86 10.87 38.38 10.08ZM41.93 8.16L41.04 8.16L41.93 7.46L41.93 6.49L41.93 6.49Q42.30 6.23 42.46 6.09L42.46 6.09L42.46 6.09Q42.62 5.95 42.72 5.89L42.72 5.89L42.72 5.89Q42.83 5.83 42.95 5.76L42.95 5.76L42.95 5.76Q43.24 5.59 43.26 5.56L43.26 5.56L43.26 7.23L45.45 7.23L45.45 7.23Q45.36 7.23 45.00 7.55L45.00 7.55L45.00 7.55Q44.31 8.16 44.13 8.16L44.13 8.16L43.26 8.16L43.26 11.82L43.26 11.82Q43.26 13.08 43.99 13.28L43.99 13.28L43.99 13.28Q44.21 13.33 44.40 13.33L44.40 13.33L44.40 13.33Q44.71 13.33 44.93 13.24L44.93 13.24L44.93 13.24Q45.15 13.15 45.29 13.07L45.29 13.07L45.29 13.07Q44.88 13.71 44.13 14.04L44.13 14.04L44.13 14.04Q43.74 14.21 43.29 14.21L43.29 14.21L43.29 14.21Q42.84 14.21 42.59 14.05L42.59 14.05L42.59 14.05Q42.35 13.90 42.20 13.64L42.20 13.64L42.20 13.64Q41.93 13.18 41.93 12.41L41.93 12.41L41.93 8.16ZM52.25 5.17L48.68 5.17L48.68 5.17Q49.81 4.25 50.00 4.25L50.00 4.25L57.72 4.25L57.72 4.25Q57.63 4.26 57.30 4.55L57.30 4.55L57.30 4.55Q56.97 4.83 56.84 4.94L56.84 4.94L56.84 4.94Q56.53 5.17 56.39 5.17L56.39 5.17L53.59 5.17L53.59 11.43L53.59 11.43Q53.59 12.26 53.31 12.80L53.31 12.80L53.31 12.80Q53.18 13.03 53.03 13.15L53.03 13.15L55.29 13.15L55.29 13.15Q55.19 13.17 54.87 13.45L54.87 13.45L54.87 13.45Q54.54 13.74 54.41 13.84L54.41 13.84L54.41 13.84Q54.09 14.08 53.96 14.08L53.96 14.08L51.58 14.08L51.58 14.08Q51.99 13.71 52.09 13.46L52.09 13.46L52.09 13.46Q52.25 13.06 52.25 12.45L52.25 12.45L52.25 5.17ZM59.64 10.53L59.64 12.59L59.64 12.59Q59.64 13.28 60.03 13.28L60.03 13.28L60.03 13.28Q60.17 13.28 60.45 13.16L60.45 13.16L60.45 13.16Q60.18 13.75 59.65 14.05L59.65 14.05L59.65 14.05Q59.38 14.21 59.07 14.19L59.07 14.19L59.07 14.19Q58.76 14.18 58.63 14.03L58.63 14.03L58.63 14.03Q58.50 13.88 58.42 13.67L58.42 13.67L58.42 13.67Q58.31 13.33 58.31 12.80L58.31 12.80L58.31 5.00L58.31 5.00Q58.31 4.27 58.06 4.03L58.06 4.03L58.06 4.03Q57.94 3.92 57.76 3.92L57.76 3.92L57.76 3.92Q57.47 3.92 57.12 4.02L57.12 4.02L57.12 4.02Q57.96 3.36 59.64 2.30L59.64 2.30L59.64 8.57L59.64 8.57Q60.49 7.82 61.39 7.55L61.39 7.55L61.39 7.55Q61.71 7.44 62.02 7.44L62.02 7.44L62.02 7.44Q62.33 7.44 62.61 7.54L62.61 7.54L62.61 7.54Q62.88 7.64 63.10 7.82L63.10 7.82L63.10 7.82Q63.59 8.22 63.59 8.83L63.59 8.83L63.59 12.30L63.59 12.30Q63.59 13.21 64.03 13.30L64.03 13.30L64.03 13.30Q64.15 13.33 64.29 13.33L64.29 13.33L64.29 13.33Q64.50 13.33 64.88 13.16L64.88 13.16L64.88 13.16Q64.31 13.88 63.56 14.11L63.56 14.11L63.56 14.11Q63.30 14.19 63.00 14.19L63.00 14.19L63.00 14.19Q62.71 14.19 62.54 14.05L62.54 14.05L62.54 14.05Q62.38 13.90 62.32 13.69L62.32 13.69L62.32 13.69Q62.25 13.47 62.25 13.21L62.25 13.21L62.25 10.14L62.25 10.14Q62.25 9.10 61.93 8.74L61.93 8.74L61.93 8.74Q61.64 8.39 60.85 8.39L60.85 8.39L60.85 8.39Q59.79 8.39 59.66 9.84L59.66 9.84L59.66 9.84Q59.64 10.21 59.64 10.53L59.64 10.53ZM70.56 12.82L70.56 12.82L70.56 12.82Q69.62 13.86 68.24 14.12L68.24 14.12L68.24 14.12Q67.92 14.18 67.44 14.18L67.44 14.18L67.44 14.18Q66.97 14.18 66.55 13.91L66.55 13.91L66.55 13.91Q66.14 13.65 65.87 13.23L65.87 13.23L65.87 13.23Q65.37 12.43 65.37 11.27L65.37 11.27L65.37 11.27Q65.37 10.50 65.95 9.57L65.95 9.57L65.95 9.57Q66.53 8.65 67.35 8.04L67.35 8.04L67.35 8.04Q68.24 7.38 69.04 7.38L69.04 7.38L69.04 7.38Q69.45 7.38 69.73 7.68L69.73 7.68L69.73 7.68Q69.99 7.98 69.99 8.35L69.99 8.35L69.99 8.35Q69.99 8.73 69.82 9.05L69.82 9.05L69.82 9.05Q69.66 9.37 69.40 9.67L69.40 9.67L69.40 9.67Q69.13 9.97 68.79 10.24L68.79 10.24L68.79 10.24Q68.46 10.52 68.10 10.76L68.10 10.76L68.10 10.76Q67.60 11.10 66.84 11.53L66.84 11.53L66.84 11.53Q67.06 12.36 67.61 12.81L67.61 12.81L67.61 12.81Q68.17 13.25 69.04 13.25L69.04 13.25L69.04 13.25Q69.78 13.25 70.56 12.82ZM68.50 10.08L68.50 10.08L68.50 10.08Q68.68 9.78 68.68 9.50L68.68 9.50L68.68 9.50Q68.68 9.22 68.62 9.03L68.62 9.03L68.62 9.03Q68.56 8.83 68.44 8.68L68.44 8.68L68.44 8.68Q68.17 8.34 67.75 8.34L67.75 8.34L67.75 8.34Q66.71 8.34 66.71 10.46L66.71 10.46L66.71 10.46Q66.71 10.83 66.77 11.20L66.77 11.20L66.77 11.20Q67.98 10.87 68.50 10.08ZM76.87 8.61L76.87 8.61L76.87 8.61Q78.39 7.44 79.18 7.44L79.18 7.44L79.18 7.44Q79.71 7.44 80.02 7.89L80.02 7.89L80.02 7.89Q80.29 8.26 80.29 8.83L80.29 8.83L80.29 12.09L80.29 12.09Q80.29 12.71 80.36 12.90L80.36 12.90L80.36 12.90Q80.53 13.26 81.06 13.26L81.06 13.26L81.06 13.26Q81.33 13.26 81.58 13.16L81.58 13.16L81.58 13.16Q80.97 13.69 80.74 13.84L80.74 13.84L80.74 13.84Q80.21 14.18 79.81 14.18L79.81 14.18L79.81 14.18Q79.41 14.18 79.24 14.04L79.24 14.04L79.24 14.04Q79.07 13.90 79.00 13.69L79.00 13.69L79.00 13.69Q78.93 13.45 78.93 12.70L78.93 12.70L78.93 10.12L78.93 10.12Q78.93 9.37 78.79 9.05L78.79 9.05L78.79 9.05Q78.65 8.72 78.44 8.56L78.44 8.56L78.44 8.56Q78.24 8.39 77.96 8.39L77.96 8.39L77.96 8.39Q77.68 8.39 77.53 8.48L77.53 8.48L77.53 8.48Q77.38 8.56 77.27 8.69L77.27 8.69L77.27 8.69Q76.86 9.17 76.86 10.26L76.86 10.26L76.86 12.20L76.86 12.20Q76.86 12.71 76.97 12.90L76.97 12.90L76.97 12.90Q77.18 13.26 77.66 13.26L77.66 13.26L77.66 13.26Q77.93 13.26 78.18 13.16L78.18 13.16L78.18 13.16Q77.57 13.69 77.33 13.84L77.33 13.84L77.33 13.84Q76.80 14.18 76.40 14.18L76.40 14.18L76.40 14.18Q76.00 14.18 75.83 14.04L75.83 14.04L75.83 14.04Q75.67 13.90 75.60 13.69L75.60 13.69L75.60 13.69Q75.52 13.45 75.52 12.70L75.52 12.70L75.52 10.12L75.52 10.12Q75.52 9.37 75.38 9.05L75.38 9.05L75.38 9.05Q75.24 8.72 75.04 8.56L75.04 8.56L75.04 8.56Q74.83 8.39 74.55 8.39L74.55 8.39L74.55 8.39Q74.26 8.39 74.10 8.50L74.10 8.50L74.10 8.50Q73.94 8.61 73.83 8.79L73.83 8.79L73.83 8.79Q73.72 8.98 73.65 9.20L73.65 9.20L73.65 9.20Q73.58 9.43 73.54 9.67L73.54 9.67L73.54 9.67Q73.48 10.08 73.48 10.53L73.48 10.53L73.48 12.64L73.48 12.64Q73.48 13.08 73.75 13.23L73.75 13.23L73.75 13.23Q73.84 13.30 73.99 13.30L73.99 13.30L73.99 13.30Q74.13 13.30 74.29 13.23L74.29 13.23L74.29 13.23Q73.50 13.90 73.18 14.06L73.18 14.06L73.18 14.06Q72.86 14.22 72.67 14.22L72.67 14.22L72.67 14.22Q72.15 14.22 72.15 13.62L72.15 13.62L72.15 9.68L72.15 9.68Q72.15 9.44 72.15 9.20L72.15 9.20L72.15 9.20Q72.16 8.96 72.11 8.76L72.11 8.76L72.11 8.76Q71.98 8.33 71.36 8.33L71.36 8.33L71.36 8.33Q71.07 8.33 70.77 8.44L70.77 8.44L70.77 8.44Q70.95 8.38 71.23 8.12L71.23 8.12L71.23 8.12Q71.78 7.63 71.99 7.55L71.99 7.55L71.99 7.55Q72.43 7.39 72.72 7.39L72.72 7.39L72.72 7.39Q73.02 7.39 73.18 7.50L73.18 7.50L73.18 7.50Q73.33 7.61 73.40 7.78L73.40 7.78L73.40 7.78Q73.48 7.99 73.48 8.60L73.48 8.60L73.48 8.60Q74.37 7.90 75.20 7.57L75.20 7.57L75.20 7.57Q75.52 7.44 75.77 7.44L75.77 7.44L75.77 7.44Q76.02 7.44 76.22 7.54L76.22 7.54L76.22 7.54Q76.41 7.64 76.55 7.80L76.55 7.80L76.55 7.80Q76.83 8.13 76.87 8.61ZM87.23 12.82L87.23 12.82L87.23 12.82Q86.30 13.86 84.91 14.12L84.91 14.12L84.91 14.12Q84.59 14.18 84.12 14.18L84.12 14.18L84.12 14.18Q83.64 14.18 83.23 13.91L83.23 13.91L83.23 13.91Q82.81 13.65 82.54 13.23L82.54 13.23L82.54 13.23Q82.04 12.43 82.04 11.27L82.04 11.27L82.04 11.27Q82.04 10.50 82.63 9.57L82.63 9.57L82.63 9.57Q83.20 8.65 84.03 8.04L84.03 8.04L84.03 8.04Q84.92 7.38 85.71 7.38L85.71 7.38L85.71 7.38Q86.12 7.38 86.40 7.68L86.40 7.68L86.40 7.68Q86.66 7.98 86.66 8.35L86.66 8.35L86.66 8.35Q86.66 8.73 86.50 9.05L86.50 9.05L86.50 9.05Q86.33 9.37 86.07 9.67L86.07 9.67L86.07 9.67Q85.80 9.97 85.47 10.24L85.47 10.24L85.47 10.24Q85.13 10.52 84.77 10.76L84.77 10.76L84.77 10.76Q84.27 11.10 83.51 11.53L83.51 11.53L83.51 11.53Q83.73 12.36 84.29 12.81L84.29 12.81L84.29 12.81Q84.84 13.25 85.72 13.25L85.72 13.25L85.72 13.25Q86.45 13.25 87.23 12.82ZM85.17 10.08L85.17 10.08L85.17 10.08Q85.35 9.78 85.35 9.50L85.35 9.50L85.35 9.50Q85.35 9.22 85.29 9.03L85.29 9.03L85.29 9.03Q85.23 8.83 85.11 8.68L85.11 8.68L85.11 8.68Q84.85 8.34 84.42 8.34L84.42 8.34L84.42 8.34Q83.38 8.34 83.38 10.46L83.38 10.46L83.38 10.46Q83.38 10.83 83.45 11.20L83.45 11.20L83.45 11.20Q84.65 10.87 85.17 10.08Z"></path></g><!----><!----></svg>